{"title":"Dumb and Dumber To 2014 CAM XviD-INFERNO","uid":11600501,"size":1279344648,"categoryP":"video","categoryS":"movies","magnet":"?xt=urn:btih:09d4123d34b6d2747961f22b82a55a3a0e531463&amp;dn=Dumb+and+Dumber+To+2014+CAM+XviD-INFERNO&amp;tr=udp%3A%2F%2Ftracker.openbittorrent.com%3A80&amp;tr=udp%3A%2F%2Fopen.demonii.com%3A1337&amp;tr=udp%3A%2F%2Ftracker.coppersurfer.tk%3A6969&amp;tr=udp%3A%2F%2Fexodus.desync.com%3A6969","seeders":7,"leechers":1,"uploader":"TvTeam","files":4,"time":1417336736,"description":" &lt;a href=&quot;https://www.torrenting.com&quot; rel=&quot;nofollow&quot; target=&quot;_NEW&quot;&gt;https://www.torrenting.com&lt;/a&gt;\n\nSign up is OPEN - for time being. Come and have fun.\n\n------------------------------------------------------------------[IMG]http://lookpic.com/O/i2/923/A29Izhdo.jpeg[/IMG]\n\n[IMG]http://lookpic.com/O/i2/682/cjVONJZp.jpeg[/IMG]\n\nSource: 720p Pimp4003... THANKS\n &lt;a href=&quot;\nhttp://www.imdb.com/title/tt2096672/&quot; rel=&quot;nofollow&quot; target=&quot;_NEW&quot;&gt;\nhttp://www.imdb.com/title/tt2096672/&lt;/a&gt;\n\nFormat                           : AVI\nFormat/Info                      : Audio Video Interleave\nFile size                        : 1.18 GiB\nDuration                         : 1h 42mn\nOverall bit rate                 : 1 652 Kbps\nWriting library                  : VirtualDub build 35491/release\n\nVideo\nID                               : 0\nFormat                           : MPEG-4 Visual\nFormat profile                   : Advanced Simple@L5\nFormat settings, BVOP            : Yes\nFormat settings, QPel            : No\nFormat settings, GMC             : No warppoints\nFormat settings, Matrix          : Default (H.263)\nMuxing mode                      : Packed bitstream\nCodec ID                         : XVID\nCodec ID/Hint                    : XviD\nDuration                         : 1h 42mn\nBit rate                         : 1 500 Kbps\nWidth                            : 720 pixels\nHeight                           : 304 pixels\nDisplay aspect ratio             : 2.35:1\nFrame rate                       : 59.940 fps\nColor space                      : YUV\nChroma subsampling               : 4:2:0\nBit depth                        : 8 bits\nScan type                        : Progressive\nBits/(Pixel*Frame)               : 0.114\nStream size                      : 1.07 GiB (91%)\nWriting library                  : XviD 1.2.1 (UTC 2008-12-04)\n\nAudio\nID                               : 1\nFormat                           : MPEG Audio\nFormat version                   : Version 1\nFormat profile                   : Layer 3\nMode                             : Joint stereo\nMode extension                   : MS Stereo\nCodec ID                         : 55\nCodec ID/Hint                    : MP3\nDuration                         : 1h 42mn\nBit rate mode                    : Constant\nBit rate                         : 128 Kbps\nChannel(s)                       : 2 channels\nSampling rate                    : 48.0 KHz\nStream size                      : 93.5 MiB (8%)\nAlignment                        : Split accross interleaves\nInterleave, duration             : 17 ms (1.00 video frame)\nInterleave, preload duration     : 500 ms\n\nWorkdone:\nDecent video, cut beginning intro off, resize video, msu denoiser, msu sharpen, RGB, contrast, and levels.\n\nAudio:\nFix sync and add some audio enhancements\n\nOur Rating: V7 A7\n\nENJOY!\n\n[IMG]http://lookpic.com/O/i2/1693/HBo1RIYH.jpeg[/IMG]\n\n[IMG]http://lookpic.com/O/i2/1556/nihRXQHU.png[/IMG]\n[IMG]http://lookpic.com/O/i2/1675/LmSxc1Rn.png[/IMG]\n[IMG]http://lookpic.com/O/i2/500/FvPfIlax.png[/IMG]\n[IMG]http://lookpic.com/O/i2/1849/ezjC54VS.png[/IMG]\n[IMG]http://lookpic.com/O/i2/967/ERys6zyi.png[/IMG]\n\nGreets go out too:\n\nTHC, Hive, CM8, BHRG, and all who put work in\n\n[IMG]http://www.myimg.us/images/02.20.12/24265.gif[/IMG]","torrent":{"xt":"urn:btih:09d4123d34b6d2747961f22b82a55a3a0e531463","amp;dn":"Dumb+and+Dumber+To+2014+CAM+XviD-INFERNO","amp;tr":["udp%3A%2F%2Ftracker.openbittorrent.com%3A80","udp%3A%2F%2Fopen.demonii.com%3A1337","udp%3A%2F%2Ftracker.coppersurfer.tk%3A6969","udp%3A%2F%2Fexodus.desync.com%3A6969"],"infoHash":"09d4123d34b6d2747961f22b82a55a3a0e531463","infoHashBuffer":{"type":"Buffer","data":[9,212,18,61,52,182,210,116,121,97,242,43,130,165,90,58,14,83,20,99]},"announce":[],"urlList":[]}}